<mxfile host="app.diagrams.net" modified="2024-04-28T09:49:58.041Z" agent="Mozilla/5.0 (X11; Linux x86_64) AppleWebKit/537.36 (KHTML, like Gecko) Chrome/124.0.0.0 Safari/537.36" etag="I01o4-2ZcHfoti6km2Ww" version="24.2.5" type="device">
  <diagram name="Page-1" id="_lX_IR1KYyR58zVsHKt9">
    <mxGraphModel dx="1050" dy="447" grid="1" gridSize="10" guides="1" tooltips="1" connect="1" arrows="1" fold="1" page="1" pageScale="1" pageWidth="850" pageHeight="1100" math="0" shadow="0">
      <root>
        <mxCell id="0" />
        <mxCell id="1" parent="0" />
        <mxCell id="V0NKnGxsRBnXYcfwVeu--12" value="Actor" style="shape=umlActor;verticalLabelPosition=bottom;verticalAlign=top;html=1;outlineConnect=0;" parent="1" vertex="1">
          <mxGeometry x="30" y="260" width="90" height="140" as="geometry" />
        </mxCell>
        <mxCell id="V0NKnGxsRBnXYcfwVeu--13" value="&lt;font style=&quot;font-size: 14px;&quot;&gt;REGISTER/LOGIN&lt;/font&gt;" style="ellipse;whiteSpace=wrap;html=1;" parent="1" vertex="1">
          <mxGeometry x="340" y="10" width="190" height="80" as="geometry" />
        </mxCell>
        <mxCell id="V0NKnGxsRBnXYcfwVeu--14" value="" style="endArrow=classic;html=1;rounded=0;entryX=0;entryY=0.5;entryDx=0;entryDy=0;" parent="1" target="V0NKnGxsRBnXYcfwVeu--13" edge="1">
          <mxGeometry width="50" height="50" relative="1" as="geometry">
            <mxPoint x="90" y="240" as="sourcePoint" />
            <mxPoint x="220" y="100" as="targetPoint" />
          </mxGeometry>
        </mxCell>
        <mxCell id="V0NKnGxsRBnXYcfwVeu--20" style="edgeStyle=orthogonalEdgeStyle;rounded=0;orthogonalLoop=1;jettySize=auto;html=1;entryX=0;entryY=0.75;entryDx=0;entryDy=0;" parent="1" source="V0NKnGxsRBnXYcfwVeu--15" target="V0NKnGxsRBnXYcfwVeu--18" edge="1">
          <mxGeometry relative="1" as="geometry" />
        </mxCell>
        <mxCell id="V0NKnGxsRBnXYcfwVeu--15" value="&lt;font style=&quot;font-size: 14px;&quot;&gt;Manage Profile&lt;/font&gt;" style="rounded=0;whiteSpace=wrap;html=1;" parent="1" vertex="1">
          <mxGeometry x="375" y="120" width="185" height="60" as="geometry" />
        </mxCell>
        <mxCell id="V0NKnGxsRBnXYcfwVeu--17" value="" style="endArrow=classic;html=1;rounded=0;entryX=-0.032;entryY=0.283;entryDx=0;entryDy=0;entryPerimeter=0;" parent="1" target="V0NKnGxsRBnXYcfwVeu--15" edge="1">
          <mxGeometry width="50" height="50" relative="1" as="geometry">
            <mxPoint x="90" y="250" as="sourcePoint" />
            <mxPoint x="240" y="150" as="targetPoint" />
          </mxGeometry>
        </mxCell>
        <mxCell id="V0NKnGxsRBnXYcfwVeu--18" value="NAME,CONTACT,&lt;div&gt;INFORMATION,&lt;/div&gt;&lt;div&gt;ADDRESS&lt;/div&gt;" style="rounded=1;whiteSpace=wrap;html=1;" parent="1" vertex="1">
          <mxGeometry x="490" y="200" width="180" height="60" as="geometry" />
        </mxCell>
        <mxCell id="V0NKnGxsRBnXYcfwVeu--25" value="" style="edgeStyle=orthogonalEdgeStyle;rounded=0;orthogonalLoop=1;jettySize=auto;html=1;" parent="1" source="V0NKnGxsRBnXYcfwVeu--21" target="V0NKnGxsRBnXYcfwVeu--24" edge="1">
          <mxGeometry relative="1" as="geometry" />
        </mxCell>
        <mxCell id="V0NKnGxsRBnXYcfwVeu--21" value="LIST PROPERTY DETAILS,&lt;div&gt;&lt;br&gt;&lt;/div&gt;" style="whiteSpace=wrap;html=1;aspect=fixed;" parent="1" vertex="1">
          <mxGeometry x="400" y="270" width="80" height="80" as="geometry" />
        </mxCell>
        <mxCell id="V0NKnGxsRBnXYcfwVeu--22" value="" style="endArrow=classic;html=1;rounded=0;entryX=-0.037;entryY=0.163;entryDx=0;entryDy=0;entryPerimeter=0;" parent="1" target="V0NKnGxsRBnXYcfwVeu--21" edge="1">
          <mxGeometry width="50" height="50" relative="1" as="geometry">
            <mxPoint x="130" y="300" as="sourcePoint" />
            <mxPoint x="240" y="220" as="targetPoint" />
          </mxGeometry>
        </mxCell>
        <mxCell id="V0NKnGxsRBnXYcfwVeu--24" value="Price , Area, Amenities,&lt;div&gt;apartment,&lt;/div&gt;&lt;div&gt;Bunglow&lt;/div&gt;" style="whiteSpace=wrap;html=1;aspect=fixed;" parent="1" vertex="1">
          <mxGeometry x="560" y="270" width="130" height="130" as="geometry" />
        </mxCell>
        <mxCell id="KXuXRAMvpf0yBCzXgIcR-1" value="&lt;b&gt;Searchng and Browsing&amp;nbsp;&lt;/b&gt;&lt;div&gt;&lt;b&gt;properties&lt;/b&gt;&lt;/div&gt;" style="ellipse;whiteSpace=wrap;html=1;" vertex="1" parent="1">
          <mxGeometry x="305" y="400" width="195" height="80" as="geometry" />
        </mxCell>
        <mxCell id="KXuXRAMvpf0yBCzXgIcR-3" value="" style="endArrow=classic;html=1;rounded=0;entryX=0;entryY=0;entryDx=0;entryDy=0;" edge="1" parent="1" target="KXuXRAMvpf0yBCzXgIcR-1">
          <mxGeometry width="50" height="50" relative="1" as="geometry">
            <mxPoint x="130" y="330" as="sourcePoint" />
            <mxPoint x="190" y="260" as="targetPoint" />
            <Array as="points">
              <mxPoint x="230" y="330" />
            </Array>
          </mxGeometry>
        </mxCell>
        <mxCell id="KXuXRAMvpf0yBCzXgIcR-5" value="" style="endArrow=classic;html=1;rounded=0;" edge="1" parent="1" source="KXuXRAMvpf0yBCzXgIcR-1">
          <mxGeometry width="50" height="50" relative="1" as="geometry">
            <mxPoint x="440" y="510" as="sourcePoint" />
            <mxPoint x="400" y="540" as="targetPoint" />
          </mxGeometry>
        </mxCell>
        <mxCell id="KXuXRAMvpf0yBCzXgIcR-6" value="VIEW PRPERTY DETAILS" style="rounded=1;whiteSpace=wrap;html=1;" vertex="1" parent="1">
          <mxGeometry x="400" y="540" width="120" height="60" as="geometry" />
        </mxCell>
        <mxCell id="KXuXRAMvpf0yBCzXgIcR-7" value="CONTACTING SELLERS" style="ellipse;whiteSpace=wrap;html=1;" vertex="1" parent="1">
          <mxGeometry x="540" y="570" width="120" height="80" as="geometry" />
        </mxCell>
        <mxCell id="KXuXRAMvpf0yBCzXgIcR-9" value="" style="endArrow=classic;html=1;rounded=0;entryX=0.433;entryY=-0.012;entryDx=0;entryDy=0;entryPerimeter=0;" edge="1" parent="1" target="KXuXRAMvpf0yBCzXgIcR-7">
          <mxGeometry width="50" height="50" relative="1" as="geometry">
            <mxPoint x="520" y="570" as="sourcePoint" />
            <mxPoint x="570" y="520" as="targetPoint" />
          </mxGeometry>
        </mxCell>
        <mxCell id="KXuXRAMvpf0yBCzXgIcR-11" value="" style="endArrow=classic;html=1;rounded=0;entryX=0.22;entryY=0.063;entryDx=0;entryDy=0;entryPerimeter=0;" edge="1" parent="1" target="KXuXRAMvpf0yBCzXgIcR-12">
          <mxGeometry width="50" height="50" relative="1" as="geometry">
            <mxPoint x="100" y="350" as="sourcePoint" />
            <mxPoint x="330" y="670" as="targetPoint" />
          </mxGeometry>
        </mxCell>
        <mxCell id="KXuXRAMvpf0yBCzXgIcR-12" value="LOGOUT" style="ellipse;whiteSpace=wrap;html=1;" vertex="1" parent="1">
          <mxGeometry x="260" y="610" width="150" height="80" as="geometry" />
        </mxCell>
      </root>
    </mxGraphModel>
  </diagram>
</mxfile>
